# Blender v2.79 (sub 0) OBJ File: 'Female_Hairstyle_1.blend'
# www.blender.org
mtllib Female_Hairstyle_1.mtl
o Female_Hairstyle_1_Cylinder.003
v 0.152643 0.142286 -0.256434
v 0.150739 0.054936 -0.258508
v 0.009566 0.046484 -0.279236
v 0.009593 0.143063 -0.278639
v 0.223512 0.146103 -0.136007
v 0.150491 -0.035296 -0.236567
v 0.009664 0.204702 -0.264421
v -0.134177 0.142301 -0.256452
v 0.228682 0.082814 -0.134546
v 0.212820 0.201565 -0.133521
v 0.008954 -0.036618 -0.255667
v 0.227873 -0.012565 -0.120603
v -0.121834 0.202635 -0.239452
v 0.139679 0.202649 -0.239453
v -0.132891 0.054914 -0.258502
v 0.250870 0.173791 -0.030533
v 0.224137 0.226994 -0.041791
v 0.143052 -0.135012 -0.191632
v 0.216655 -0.137555 -0.111757
v 0.009063 0.241637 -0.235413
v -0.205764 0.146330 -0.135983
v -0.189909 0.198136 -0.133387
v 0.259936 0.024044 -0.001404
v 0.261620 0.107360 -0.021553
v 0.106027 0.239352 -0.216451
v 0.160115 0.255176 -0.128302
v -0.133977 -0.035312 -0.236562
v 0.008457 -0.142296 -0.213406
v 0.254593 -0.117028 0.024680
v -0.088934 0.237771 -0.216432
v -0.228767 0.083252 -0.134513
v 0.186430 0.181613 0.201978
v 0.165650 0.228533 0.185694
v 0.169622 0.270067 -0.051439
v -0.121550 -0.135023 -0.191628
v -0.229923 -0.012658 -0.120576
v 0.130541 -0.219008 -0.175941
v 0.198661 -0.232614 -0.111757
v 0.220559 -0.229067 0.060191
v -0.035391 0.287871 -0.158092
v 0.008432 0.288018 -0.168491
v -0.242150 0.173941 -0.030474
v -0.207192 0.226612 -0.041633
v -0.146876 0.247678 -0.138787
v 0.221320 0.019204 0.175691
v 0.226577 -0.112455 0.195196
v 0.207991 0.119042 0.188259
v 0.054348 0.287801 -0.157936
v 0.072065 0.290089 -0.129190
v -0.213144 -0.138588 -0.111749
v 0.008030 -0.214433 -0.197715
v 0.196369 -0.228857 0.232178
v -0.260830 0.023873 -0.006321
v -0.261620 0.107840 -0.016781
v 0.005200 0.223295 0.244875
v 0.129504 0.284565 0.139601
v 0.102322 0.308203 -0.048255
v -0.115693 -0.220204 -0.175938
v -0.246383 -0.122005 0.024713
v 0.114875 -0.310171 -0.175941
v 0.178652 -0.293800 -0.111757
v 0.182971 -0.303311 0.060191
v 0.163003 -0.317388 0.232178
v -0.055645 0.288685 -0.129093
v 0.008391 0.300570 -0.114103
v -0.153728 0.167373 0.213741
v -0.143559 0.230077 0.195361
v -0.162300 0.268049 -0.051252
v 0.087041 0.134540 0.257551
v 0.000998 0.173503 0.263771
v 0.008925 0.232752 0.256195
v 0.008335 0.317388 -0.041232
v -0.190886 -0.235821 -0.111749
v 0.007545 -0.311323 -0.197715
v -0.210309 0.020418 0.172581
v -0.218920 -0.112846 0.194074
v -0.200623 0.094425 0.177939
v 0.004941 0.115930 0.279236
v -0.144667 0.156648 0.204422
v 0.008449 0.281859 0.203048
v 0.074025 0.308174 0.045281
v -0.100786 -0.317094 -0.175938
v -0.212014 -0.240582 0.062671
v -0.085684 0.308042 -0.048041
v -0.103509 0.278269 0.139824
v -0.074473 0.106767 0.264079
v 0.008330 0.314775 0.027533
v -0.170401 -0.297007 -0.111749
v -0.188301 -0.231422 0.231747
v -0.188846 0.093279 0.174895
v -0.153887 0.097605 0.221090
v 0.008327 0.312780 0.080052
v -0.174084 -0.301767 0.062671
v -0.057305 0.307687 0.045522
v -0.154511 -0.316323 0.231747
v 0.126064 0.135398 -0.217064
v 0.125169 0.059340 -0.218125
v 0.009523 0.052471 -0.231611
v 0.009566 0.136410 -0.231103
v 0.180305 0.138424 -0.116560
v 0.125507 -0.022818 -0.197528
v 0.009633 0.183165 -0.221525
v -0.108486 0.133585 -0.216855
v 0.184780 0.083539 -0.115157
v 0.174716 0.178679 -0.115402
v 0.008962 -0.021039 -0.210267
v 0.184279 -0.006980 -0.101306
v -0.097494 0.179985 -0.204834
v 0.115774 0.179943 -0.204569
v -0.108953 0.058100 -0.217021
v 0.204891 0.160035 -0.029723
v 0.184774 0.199606 -0.039708
v 0.119290 -0.122398 -0.151880
v 0.174304 -0.128123 -0.091232
v 0.009206 0.206796 -0.202398
v -0.164693 0.133893 -0.114480
v -0.152440 0.175181 -0.114071
v 0.211945 0.024530 -0.000687
v 0.213817 0.103191 -0.020321
v 0.090497 0.203401 -0.188700
v 0.135051 0.217534 -0.112216
v -0.110857 -0.022604 -0.196463
v 0.008491 -0.127764 -0.167659
v 0.207038 -0.110591 0.025728
v -0.072822 0.202129 -0.188612
v -0.186033 0.080457 -0.112836
v 0.151185 0.161897 0.176038
v 0.137131 0.200636 0.159005
v 0.142403 0.230804 -0.046811
v -0.100337 -0.122185 -0.150529
v -0.187244 -0.006111 -0.099611
v 0.108365 -0.211700 -0.134004
v 0.157257 -0.219802 -0.091130
v 0.175064 -0.213788 0.059376
v -0.025827 0.244141 -0.140767
v 0.008590 0.244611 -0.148002
v -0.197663 0.155959 -0.029240
v -0.167899 0.199167 -0.039018
v -0.120479 0.211643 -0.121222
v 0.174445 0.016757 0.165659
v 0.179572 -0.107029 0.187131
v 0.162026 0.111234 0.176853
v 0.045139 0.244092 -0.140371
v 0.059798 0.245579 -0.116063
v -0.171803 -0.127933 -0.089809
v 0.008023 -0.208928 -0.150033
v 0.151332 -0.213338 0.226285
v -0.212842 0.024903 -0.006457
v -0.214453 0.098950 -0.017215
v -0.000749 0.238429 0.199714
v 0.108946 0.243700 0.125062
v 0.088563 0.262529 -0.042919
v -0.094697 -0.213555 -0.133289
v -0.198940 -0.114723 0.024770
v 0.094877 -0.306289 -0.132479
v 0.138010 -0.280228 -0.090126
v 0.138895 -0.284322 0.059389
v 0.119228 -0.298306 0.227328
v -0.042889 0.244385 -0.115725
v 0.008632 0.253763 -0.103468
v -0.129821 0.170852 0.172266
v -0.114434 0.202333 0.169170
v -0.134361 0.229321 -0.046408
v 0.075116 0.114938 0.215390
v 0.003799 0.156203 0.219086
v 0.004197 0.229354 0.208551
v 0.008478 0.269618 -0.036546
v -0.150316 -0.222641 -0.089744
v 0.007699 -0.310601 -0.149721
v -0.163908 0.018427 0.160456
v -0.172056 -0.107531 0.185163
v -0.161431 0.091923 0.150342
v 0.006104 0.103556 0.232874
v -0.136051 0.168278 0.158657
v 0.008558 0.240179 0.179246
v 0.063348 0.261573 0.041007
v -0.081465 -0.313552 -0.132142
v -0.166894 -0.224247 0.061559
v -0.071661 0.262421 -0.042948
v -0.083534 0.237028 0.125538
v -0.056733 0.088940 0.223197
v 0.008455 0.266807 0.025810
v -0.130748 -0.282908 -0.088668
v -0.143592 -0.215130 0.225468
v -0.182689 0.109980 0.130319
v -0.122973 0.083239 0.187300
v 0.009202 0.265397 0.072436
v -0.130894 -0.280846 0.061716
v -0.045491 0.261469 0.040222
v -0.111673 -0.295291 0.226599
vt 0.527479 0.572958
vt 0.527480 0.572959
vt 0.527481 0.572958
vt 0.527480 0.572958
vt 0.534552 0.577334
vt 0.534529 0.577164
vt 0.528438 0.572649
vt 0.528544 0.571843
vt 0.527578 0.573945
vt 0.527574 0.573944
vt 0.529193 0.573192
vt 0.530175 0.574202
vt 0.534631 0.577824
vt 0.531814 0.575081
vt 0.531457 0.575243
vt 0.534124 0.577645
vt 0.534091 0.577030
vt 0.535066 0.578653
vt 0.528551 0.571847
vt 0.527098 0.571515
vt 0.528129 0.571561
vt 0.529239 0.572896
vt 0.533028 0.576213
vt 0.532951 0.577097
vt 0.530263 0.575521
vt 0.530411 0.574156
vt 0.531558 0.574724
vt 0.532727 0.575306
vt 0.533204 0.576522
vt 0.534698 0.578125
vt 0.535588 0.579097
vt 0.533613 0.575787
vt 0.533927 0.576159
vt 0.535525 0.572988
vt 0.533227 0.576762
vt 0.535861 0.574045
vt 0.528762 0.571682
vt 0.529386 0.573564
vt 0.527097 0.571515
vt 0.528025 0.571490
vt 0.531772 0.574252
vt 0.533514 0.575620
vt 0.536162 0.578458
vt 0.535959 0.578601
vt 0.535784 0.578674
vt 0.531198 0.574369
vt 0.532558 0.574656
vt 0.533772 0.575162
vt 0.533186 0.576287
vt 0.533146 0.575768
vt 0.536692 0.576929
vt 0.535690 0.577753
vt 0.536139 0.578697
vt 0.528788 0.572832
vt 0.528974 0.571517
vt 0.533136 0.575627
vt 0.535590 0.578155
vt 0.529730 0.574363
vt 0.534874 0.576308
vt 0.536645 0.571113
vt 0.536306 0.571064
vt 0.528179 0.574122
vt 0.527832 0.575419
vt 0.528422 0.572593
vt 0.528372 0.572121
vt 0.530322 0.573672
vt 0.533004 0.575402
vt 0.533130 0.575553
vt 0.536120 0.578565
vt 0.532840 0.573623
vt 0.536658 0.571879
vt 0.536987 0.571774
vt 0.536890 0.571364
vt 0.537098 0.571185
vt 0.536993 0.579088
vt 0.536869 0.578486
vt 0.528089 0.575426
vt 0.528758 0.572372
vt 0.536868 0.578486
vt 0.529280 0.575049
vt 0.528346 0.575432
vt 0.537098 0.571722
vt 0.535989 0.570983
vt 0.536041 0.571893
vt 0.536931 0.578788
vt 0.528471 0.573411
vt 0.528347 0.575433
vt 0.535806 0.572263
vt 0.535978 0.570876
vt 0.535883 0.571723
vt 0.536993 0.579088
vt 0.528139 0.575218
vt 0.536869 0.578487
vt 0.535757 0.572066
vt 0.528260 0.575381
vt 0.527479 0.572958
vt 0.527480 0.572958
vt 0.527481 0.572958
vt 0.527480 0.572959
vt 0.534529 0.577164
vt 0.534552 0.577334
vt 0.528544 0.571843
vt 0.528438 0.572649
vt 0.527574 0.573944
vt 0.527578 0.573945
vt 0.530175 0.574202
vt 0.529193 0.573192
vt 0.534631 0.577824
vt 0.531814 0.575081
vt 0.531457 0.575243
vt 0.534091 0.577030
vt 0.534124 0.577645
vt 0.535066 0.578653
vt 0.528551 0.571847
vt 0.528129 0.571561
vt 0.527098 0.571515
vt 0.529239 0.572896
vt 0.532951 0.577097
vt 0.533028 0.576213
vt 0.530263 0.575521
vt 0.531558 0.574724
vt 0.530411 0.574156
vt 0.532727 0.575306
vt 0.533204 0.576522
vt 0.534698 0.578125
vt 0.535588 0.579097
vt 0.533613 0.575787
vt 0.533927 0.576159
vt 0.533227 0.576762
vt 0.535525 0.572988
vt 0.535861 0.574045
vt 0.528762 0.571682
vt 0.529386 0.573564
vt 0.528025 0.571490
vt 0.527097 0.571515
vt 0.531772 0.574252
vt 0.533514 0.575620
vt 0.535959 0.578601
vt 0.536162 0.578458
vt 0.535784 0.578674
vt 0.532558 0.574656
vt 0.531198 0.574369
vt 0.533772 0.575162
vt 0.533186 0.576287
vt 0.533146 0.575768
vt 0.536692 0.576929
vt 0.535690 0.577753
vt 0.536139 0.578697
vt 0.528788 0.572832
vt 0.528974 0.571517
vt 0.533136 0.575627
vt 0.535590 0.578155
vt 0.529730 0.574363
vt 0.534874 0.576308
vt 0.536306 0.571064
vt 0.536645 0.571113
vt 0.528179 0.574122
vt 0.527832 0.575419
vt 0.528372 0.572121
vt 0.528422 0.572593
vt 0.530322 0.573672
vt 0.533004 0.575402
vt 0.533130 0.575553
vt 0.536120 0.578565
vt 0.536658 0.571879
vt 0.532840 0.573623
vt 0.536987 0.571774
vt 0.536890 0.571364
vt 0.537098 0.571185
vt 0.536993 0.579088
vt 0.536869 0.578486
vt 0.528089 0.575426
vt 0.528758 0.572372
vt 0.536868 0.578486
vt 0.529280 0.575049
vt 0.528346 0.575432
vt 0.537098 0.571722
vt 0.535989 0.570983
vt 0.536041 0.571893
vt 0.536931 0.578788
vt 0.528471 0.573411
vt 0.528347 0.575433
vt 0.535806 0.572263
vt 0.535978 0.570876
vt 0.535883 0.571723
vt 0.536993 0.579088
vt 0.528139 0.575218
vt 0.536869 0.578487
vt 0.535757 0.572066
vt 0.528260 0.575381
vn 0.1490 0.0128 -0.9888
vn 0.8527 0.0206 -0.5219
vn 0.1435 -0.2520 -0.9570
vn 0.1670 0.2608 -0.9508
vn -0.1479 0.0132 -0.9889
vn 0.8147 0.2540 -0.5214
vn 0.8448 -0.1062 -0.5245
vn -0.1656 0.2603 -0.9512
vn 0.9537 0.0941 -0.2857
vn 0.9193 0.2956 -0.2599
vn -0.1422 -0.2501 -0.9577
vn 0.1467 -0.3913 -0.9085
vn 0.7852 -0.2050 -0.5843
vn -0.1625 0.6244 -0.7640
vn 0.1607 0.6182 -0.7694
vn -0.8117 0.1193 -0.5718
vn -0.8143 0.2924 -0.5014
vn 0.9652 -0.0619 -0.2539
vn 0.5802 0.6900 -0.4327
vn 0.6539 0.7136 -0.2514
vn 0.9654 -0.0921 -0.2438
vn -0.6193 0.6477 -0.4439
vn 0.9433 0.2274 0.2418
vn 0.8567 0.4669 0.2194
vn -0.1483 -0.3937 -0.9072
vn -0.7876 -0.1075 -0.6067
vn 0.1655 -0.2075 -0.9641
vn 0.6912 -0.1791 -0.7001
vn 0.9498 -0.2667 -0.1635
vn -0.1403 0.8122 -0.5663
vn 0.1305 0.8163 -0.5627
vn -0.9043 0.2573 -0.3406
vn -0.8555 0.3879 -0.3430
vn 0.9705 0.0712 0.2301
vn 0.9816 0.0311 0.1882
vn 0.6918 0.7092 0.1358
vn 0.3653 0.8595 -0.3576
vn 0.4046 0.8693 -0.2838
vn -0.7116 -0.2487 -0.6571
vn -0.1670 -0.1984 -0.9658
vn 0.9632 -0.2233 0.1499
vn -0.3709 0.8568 -0.3581
vn -0.9659 -0.0329 -0.2568
vn -0.7098 0.6360 -0.3028
vn 0.2938 0.3708 0.8810
vn -0.6342 -0.1628 -0.7559
vn -0.9657 -0.1427 -0.2168
vn 0.1859 -0.0160 -0.9824
vn 0.6900 -0.1616 -0.7055
vn 0.9175 -0.3902 -0.0767
vn 0.9120 -0.3975 0.1011
vn -0.0565 0.9728 -0.2246
vn 0.0562 0.9729 -0.2245
vn -0.8751 0.3676 0.3146
vn -0.8686 0.4107 0.2771
vn 0.2378 -0.7825 0.5755
vn 0.3101 0.7075 0.6351
vn 0.4164 0.9076 0.0540
vn 0.1246 0.9801 -0.1548
vn 0.0875 0.9676 -0.2369
vn -0.9485 -0.2762 -0.1554
vn -0.1838 -0.0137 -0.9829
vn -0.3938 0.8653 -0.3101
vn -0.1507 0.9796 -0.1328
vn -0.9555 0.0631 0.2881
vn -0.9757 0.0207 0.2181
vn -0.6540 0.7386 0.1634
vn 0.2648 0.4486 0.8536
vn -0.3877 0.3555 0.8505
vn 0.1064 -0.6970 0.7091
vn 0.0961 0.9948 0.0330
vn -0.6587 -0.1475 -0.7378
vn -0.0957 0.9647 -0.2454
vn -0.9641 -0.2140 0.1574
vn 0.1923 -0.5256 0.8287
vn -0.3564 0.3156 0.8794
vn 0.1891 0.2668 0.9450
vn -0.3824 0.4362 0.8146
vn -0.2892 0.7631 0.5779
vn 0.1215 0.9696 0.2122
vn -0.8999 -0.4296 -0.0757
vn -0.4316 0.8964 0.1011
vn -0.2087 0.2404 0.9480
vn -0.4802 0.3070 0.8217
vn 0.0898 0.9952 0.0378
vn -0.0999 0.9944 0.0356
vn -0.8925 -0.4382 0.1073
vn -0.7779 0.2803 0.5624
vn -0.1730 0.9579 0.2293
vn -0.0970 0.9946 0.0378
vn -0.1175 -0.0091 0.9930
vn -0.8712 -0.0225 0.4905
vn -0.1140 0.2586 0.9592
vn -0.1382 -0.2473 0.9590
vn 0.1210 -0.0046 0.9926
vn -0.8334 -0.2365 0.4995
vn -0.8640 0.0993 0.4936
vn 0.1384 -0.2393 0.9610
vn -0.9502 -0.0850 0.2998
vn -0.9254 -0.2684 0.2675
vn 0.1186 0.2586 0.9587
vn -0.1205 0.3937 0.9113
vn -0.7990 0.2016 0.5665
vn 0.1469 -0.6521 0.7437
vn -0.1460 -0.6402 0.7542
vn 0.8260 -0.1334 0.5476
vn 0.8329 -0.2878 0.4727
vn -0.9628 0.0654 0.2622
vn -0.5663 -0.7154 0.4094
vn -0.6349 -0.7293 0.2551
vn -0.9647 0.0912 0.2472
vn 0.6188 -0.6631 0.4212
vn -0.9495 -0.1977 -0.2437
vn -0.8662 -0.4517 -0.2138
vn 0.1299 0.3964 0.9088
vn 0.8002 0.1044 0.5906
vn -0.1481 0.2111 0.9662
vn -0.6829 0.1760 0.7090
vn -0.9511 0.2663 0.1563
vn 0.1386 -0.8101 0.5697
vn -0.1293 -0.8149 0.5649
vn 0.8939 -0.2637 0.3625
vn 0.8488 -0.3815 0.3660
vn -0.9687 -0.0706 -0.2379
vn -0.9802 -0.0369 -0.1948
vn -0.6847 -0.7184 -0.1228
vn -0.3641 -0.8640 0.3478
vn -0.4015 -0.8674 0.2939
vn 0.7148 0.2484 0.6538
vn 0.1558 0.2001 0.9673
vn -0.9626 0.2236 -0.1528
vn 0.3680 -0.8620 0.3486
vn 0.9634 0.0419 0.2647
vn 0.7103 -0.6299 0.3142
vn -0.2999 -0.3169 -0.8998
vn 0.6146 0.1614 0.7721
vn 0.9662 0.1422 0.2150
vn -0.1748 0.0215 0.9844
vn -0.6874 0.1567 0.7092
vn -0.9194 0.3895 0.0548
vn -0.9111 0.3993 -0.1019
vn 0.0556 -0.9780 0.2009
vn -0.0559 -0.9780 0.2010
vn 0.9078 -0.3021 -0.2909
vn 0.8179 -0.5321 -0.2187
vn 0.3685 0.7438 0.5576
vn -0.3239 -0.7769 -0.5399
vn -0.4119 -0.9098 -0.0520
vn -0.1240 -0.9831 0.1350
vn -0.0775 -0.9671 0.2423
vn 0.9505 0.2752 0.1443
vn 0.1754 0.0183 0.9843
vn 0.3856 -0.8651 0.3208
vn 0.1518 -0.9819 0.1130
vn 0.9550 -0.0470 -0.2930
vn 0.9739 -0.0264 -0.2255
vn 0.6380 -0.7546 -0.1534
vn -0.2500 -0.3512 -0.9023
vn 0.3751 -0.1929 -0.9067
vn -0.4868 0.7439 0.4578
vn -0.0882 -0.9953 -0.0408
vn 0.6491 0.1432 0.7471
vn 0.0857 -0.9640 0.2516
vn 0.9641 0.2119 -0.1599
vn -0.7240 0.1678 0.6690
vn 0.3574 -0.2628 -0.8962
vn -0.1974 -0.2564 -0.9462
vn 0.3433 -0.3619 -0.8667
vn 0.2995 -0.8677 -0.3967
vn -0.1095 -0.9748 -0.1943
vn 0.9018 0.4293 0.0493
vn 0.4274 -0.8979 -0.1052
vn 0.2020 -0.2398 -0.9496
vn 0.4796 -0.2130 -0.8512
vn -0.0870 -0.9958 -0.0287
vn 0.0905 -0.9950 -0.0420
vn 0.8908 0.4414 -0.1081
vn 0.6456 -0.1527 -0.7483
vn 0.1716 -0.9616 -0.2140
vn 0.0901 -0.9954 -0.0316
vn -0.3509 -0.2045 0.9138
vn -0.2073 -0.1458 0.9674
vn -0.1826 0.1485 0.9719
vn -0.0654 0.3381 0.9388
vn 0.0172 -0.9984 0.0540
vn 0.0637 -0.9475 0.3134
vn -0.3657 -0.9301 -0.0334
vn -0.1028 0.0448 0.9937
vn -0.3882 -0.9136 -0.1207
vn 0.5209 -0.8442 0.1266
vn 0.0512 -0.9981 0.0355
vn 0.4207 -0.0054 0.9072
vn 0.2119 0.1582 0.9644
vn 0.2599 -0.9179 0.2999
vn -0.0979 -0.9376 0.3337
vn 0.0746 0.3424 0.9366
vn 0.4162 0.8064 0.4201
vn 0.0960 -0.9340 0.3441
vn 0.3901 -0.9208 -0.0031
vn -0.0908 -0.9346 0.3438
vn 0.4274 -0.8950 -0.1274
vn -0.1330 -0.9868 -0.0923
vn 0.1083 0.0499 0.9929
usemtl Hair
s off
f 2/1/1 3/2/1 4/3/1 1/4/1
f 1/4/2 5/5/2 9/6/2 2/1/2
f 2/1/3 6/7/3 11/8/3 3/2/3
f 4/3/4 7/9/4 14/10/4 1/4/4
f 4/3/5 3/2/5 15/11/5 8/12/5
f 5/5/6 1/4/6 14/10/6 10/13/6
f 6/7/7 2/1/7 9/6/7 12/14/7
f 7/9/8 4/3/8 8/12/8 13/15/8
f 5/5/9 16/16/9 24/17/9 9/6/9
f 10/13/10 17/18/10 16/16/10 5/5/10
f 3/2/11 11/8/11 27/19/11 15/11/11
f 6/7/12 18/20/12 28/21/12 11/8/12
f 12/14/13 19/22/13 18/20/13 6/7/13
f 7/9/14 13/15/14 30/23/14 20/24/14
f 7/9/15 20/24/15 25/25/15 14/10/15
f 8/12/16 15/11/16 31/26/16 21/27/16
f 13/15/17 8/12/17 21/27/17 22/28/17
f 12/14/18 9/6/18 24/17/18 23/29/18
f 14/10/19 25/25/19 26/30/19 10/13/19
f 10/13/20 26/30/20 34/31/20 17/18/20
f 19/22/21 12/14/21 23/29/21 29/32/21
f 13/15/22 22/28/22 44/33/22 30/23/22
f 16/16/23 32/34/23 47/35/23 24/17/23
f 17/18/24 33/36/24 32/34/24 16/16/24
f 27/19/25 11/8/25 28/21/25 35/37/25
f 27/19/26 36/38/26 31/26/26 15/11/26
f 18/20/27 37/39/27 51/40/27 28/21/27
f 19/22/28 38/41/28 37/39/28 18/20/28
f 29/32/29 39/42/29 38/41/29 19/22/29
f 30/23/30 40/43/30 41/44/30 20/24/30
f 20/24/31 41/44/31 48/45/31 25/25/31
f 21/27/32 31/26/32 54/46/32 42/47/32
f 22/28/33 21/27/33 42/47/33 43/48/33
f 23/29/34 24/17/34 47/35/34 45/49/34
f 29/32/35 23/29/35 45/49/35 46/50/35
f 17/18/36 34/31/36 56/51/36 33/36/36
f 25/25/37 48/45/37 49/52/37 26/30/37
f 26/30/38 49/52/38 57/53/38 34/31/38
f 35/37/39 50/54/39 36/38/39 27/19/39
f 28/21/40 51/40/40 58/55/40 35/37/40
f 39/42/41 29/32/41 46/50/41 52/56/41
f 30/23/42 44/33/42 64/57/42 40/43/42
f 36/38/43 53/58/43 54/46/43 31/26/43
f 22/28/44 43/48/44 68/59/44 44/33/44
f 33/36/45 55/60/45 70/61/45 32/34/45
f 35/37/46 58/55/46 73/62/46 50/54/46
f 50/54/47 59/63/47 53/58/47 36/38/47
f 37/39/48 60/64/48 74/65/48 51/40/48
f 38/41/49 61/66/49 60/64/49 37/39/49
f 39/42/50 62/67/50 61/66/50 38/41/50
f 52/56/51 63/68/51 62/67/51 39/42/51
f 65/69/52 41/44/52 40/43/52
f 41/44/53 65/69/53 48/45/53
f 42/47/54 54/46/54 77/70/54 66/71/54
f 43/48/55 42/47/55 66/71/55 67/72/55
f 33/36/56 71/73/56 55/60/56
f 33/36/57 56/51/57 80/74/57 71/73/57
f 34/31/58 57/53/58 81/75/58 56/51/58
f 65/69/59 49/52/59 48/45/59
f 57/53/60 49/52/60 65/69/60 72/76/60
f 50/54/61 73/62/61 83/77/61 59/63/61
f 51/40/62 74/65/62 82/78/62 58/55/62
f 44/33/63 68/59/63 84/79/63 64/57/63
f 64/57/64 65/69/64 40/43/64
f 53/58/65 75/80/65 77/70/65 54/46/65
f 59/63/66 76/81/66 75/80/66 53/58/66
f 43/48/67 67/72/67 85/82/67 68/59/67
f 32/34/68 70/61/68 69/83/68
f 79/84/69 70/61/69 55/60/69
f 71/73/70 66/71/70 79/84/70 55/60/70
f 57/53/71 72/76/71 87/85/71 81/75/71
f 58/55/72 82/78/72 88/86/72 73/62/72
f 65/69/73 64/57/73 84/79/73 72/76/73
f 59/63/74 83/77/74 89/87/74 76/81/74
f 66/71/75 77/70/75 90/88/75 79/84/75
f 67/72/76 66/71/76 71/73/76
f 70/61/77 78/89/77 69/83/77
f 79/84/78 86/90/78 70/61/78
f 71/73/79 80/74/79 85/82/79 67/72/79
f 56/51/80 81/75/80 92/91/80 80/74/80
f 73/62/81 88/86/81 93/92/81 83/77/81
f 68/59/82 85/82/82 94/93/82 84/79/82
f 86/90/83 78/89/83 70/61/83
f 91/94/84 86/90/84 79/84/84
f 92/91/85 81/75/85 87/85/85
f 72/76/86 84/79/86 94/93/86 87/85/86
f 83/77/87 93/92/87 95/95/87 89/87/87
f 90/88/88 91/94/88 79/84/88
f 80/74/89 92/91/89 94/93/89 85/82/89
f 92/91/90 87/85/90 94/93/90
f 97/96/91 96/97/91 99/98/91 98/99/91
f 96/97/92 97/96/92 104/100/92 100/101/92
f 97/96/93 98/99/93 106/102/93 101/103/93
f 99/98/94 96/97/94 109/104/94 102/105/94
f 99/98/95 103/106/95 110/107/95 98/99/95
f 100/101/96 105/108/96 109/104/96 96/97/96
f 101/103/97 107/109/97 104/100/97 97/96/97
f 102/105/98 108/110/98 103/106/98 99/98/98
f 100/101/99 104/100/99 119/111/99 111/112/99
f 105/108/100 100/101/100 111/112/100 112/113/100
f 98/99/101 110/107/101 122/114/101 106/102/101
f 101/103/102 106/102/102 123/115/102 113/116/102
f 107/109/103 101/103/103 113/116/103 114/117/103
f 102/105/104 115/118/104 125/119/104 108/110/104
f 102/105/105 109/104/105 120/120/105 115/118/105
f 103/106/106 116/121/106 126/122/106 110/107/106
f 108/110/107 117/123/107 116/121/107 103/106/107
f 107/109/108 118/124/108 119/111/108 104/100/108
f 109/104/109 105/108/109 121/125/109 120/120/109
f 105/108/110 112/113/110 129/126/110 121/125/110
f 114/117/111 124/127/111 118/124/111 107/109/111
f 108/110/112 125/119/112 139/128/112 117/123/112
f 111/112/113 119/111/113 142/129/113 127/130/113
f 112/113/114 111/112/114 127/130/114 128/131/114
f 122/114/115 130/132/115 123/115/115 106/102/115
f 122/114/116 110/107/116 126/122/116 131/133/116
f 113/116/117 123/115/117 146/134/117 132/135/117
f 114/117/118 113/116/118 132/135/118 133/136/118
f 124/127/119 114/117/119 133/136/119 134/137/119
f 125/119/120 115/118/120 136/138/120 135/139/120
f 115/118/121 120/120/121 143/140/121 136/138/121
f 116/121/122 137/141/122 149/142/122 126/122/122
f 117/123/123 138/143/123 137/141/123 116/121/123
f 118/124/124 140/144/124 142/129/124 119/111/124
f 124/127/125 141/145/125 140/144/125 118/124/125
f 112/113/126 128/131/126 151/146/126 129/126/126
f 120/120/127 121/125/127 144/147/127 143/140/127
f 121/125/128 129/126/128 152/148/128 144/147/128
f 130/132/129 122/114/129 131/133/129 145/149/129
f 123/115/130 130/132/130 153/150/130 146/134/130
f 134/137/131 147/151/131 141/145/131 124/127/131
f 125/119/132 135/139/132 159/152/132 139/128/132
f 131/133/133 126/122/133 149/142/133 148/153/133
f 117/123/134 139/128/134 163/154/134 138/143/134
f 128/131/135 127/130/135 165/155/135 150/156/135
f 130/132/136 145/149/136 168/157/136 153/150/136
f 145/149/137 131/133/137 148/153/137 154/158/137
f 132/135/138 146/134/138 169/159/138 155/160/138
f 133/136/139 132/135/139 155/160/139 156/161/139
f 134/137/140 133/136/140 156/161/140 157/162/140
f 147/151/141 134/137/141 157/162/141 158/163/141
f 160/164/142 135/139/142 136/138/142
f 136/138/143 143/140/143 160/164/143
f 137/141/144 161/165/144 172/166/144 149/142/144
f 138/143/145 162/167/145 161/165/145 137/141/145
f 128/131/146 150/156/146 166/168/146
f 128/131/147 166/168/147 175/169/147 151/146/147
f 129/126/148 151/146/148 176/170/148 152/148/148
f 160/164/149 143/140/149 144/147/149
f 152/148/150 167/171/150 160/164/150 144/147/150
f 145/149/151 154/158/151 178/172/151 168/157/151
f 146/134/152 153/150/152 177/173/152 169/159/152
f 139/128/153 159/152/153 179/174/153 163/154/153
f 159/152/154 135/139/154 160/164/154
f 148/153/155 149/142/155 172/166/155 170/175/155
f 154/158/156 148/153/156 170/175/156 171/176/156
f 138/143/157 163/154/157 180/177/157 162/167/157
f 127/130/158 164/178/158 165/155/158
f 174/179/159 150/156/159 165/155/159
f 166/168/160 150/156/160 174/179/160 161/165/160
f 152/148/161 176/170/161 182/180/161 167/171/161
f 153/150/162 168/157/162 183/181/162 177/173/162
f 160/164/163 167/171/163 179/174/163 159/152/163
f 154/158/164 171/176/164 184/182/164 178/172/164
f 161/165/165 174/179/165 185/183/165 172/166/165
f 162/167/166 166/168/166 161/165/166
f 165/155/167 164/178/167 173/184/167
f 174/179/168 165/155/168 181/185/168
f 166/168/169 162/167/169 180/177/169 175/169/169
f 151/146/170 175/169/170 187/186/170 176/170/170
f 168/157/171 178/172/171 188/187/171 183/181/171
f 163/154/172 179/174/172 189/188/172 180/177/172
f 181/185/173 165/155/173 173/184/173
f 186/189/174 174/179/174 181/185/174
f 187/186/175 182/180/175 176/170/175
f 167/171/176 182/180/176 189/188/176 179/174/176
f 178/172/177 184/182/177 190/190/177 188/187/177
f 185/183/178 174/179/178 186/189/178
f 175/169/179 180/177/179 189/188/179 187/186/179
f 187/186/180 189/188/180 182/180/180
f 47/35/181 32/34/181 127/130/181 142/129/181
f 45/49/182 47/35/182 142/129/182 140/144/182
f 46/50/183 45/49/183 140/144/183 141/145/183
f 52/56/184 46/50/184 141/145/184 147/151/184
f 74/65/185 60/64/185 155/160/185 169/159/185
f 60/64/186 61/66/186 156/161/186 155/160/186
f 61/66/187 62/67/187 157/162/187 156/161/187
f 63/68/188 52/56/188 147/151/188 158/163/188
f 62/67/189 63/68/189 158/163/189 157/162/189
f 32/34/190 69/83/190 164/178/190 127/130/190
f 82/78/191 74/65/191 169/159/191 177/173/191
f 77/70/192 75/80/192 170/175/192 172/166/192
f 75/80/193 76/81/193 171/176/193 170/175/193
f 69/83/194 78/89/194 173/184/194 164/178/194
f 88/86/195 82/78/195 177/173/195 183/181/195
f 76/81/196 89/87/196 184/182/196 171/176/196
f 90/88/197 77/70/197 172/166/197 185/183/197
f 78/89/198 86/90/198 181/185/198 173/184/198
f 93/92/199 88/86/199 183/181/199 188/187/199
f 86/90/200 91/94/200 186/189/200 181/185/200
f 95/95/201 93/92/201 188/187/201 190/190/201
f 91/94/202 90/88/202 185/183/202 186/189/202
f 89/87/203 95/95/203 190/190/203 184/182/203
