# Blender v2.79 (sub 0) OBJ File: 'Male_Hairstyle_2.blend'
# www.blender.org
mtllib Male_Hairstyle_2.mtl
o Male_Hairstyle_2_Human_CylinderMesh.000
v 0.182913 -0.203180 -0.150085
v 0.209312 -0.143787 -0.148265
v 0.198851 -0.046048 -0.197807
v 0.228919 -0.023425 0.174400
v 0.238953 -0.147487 0.186924
v 0.239639 -0.063519 -0.039396
v 0.198411 0.051422 -0.178142
v 0.222993 0.066779 0.172565
v 0.251264 0.058624 -0.036362
v 0.173428 0.161433 -0.144193
v 0.193092 0.168377 0.172038
v 0.028338 0.178612 0.222974
v 0.218178 0.170072 -0.024399
v 0.129353 0.229295 -0.012625
v 0.246595 0.060546 0.040893
v 0.234809 -0.028943 0.088382
v -0.182913 -0.203180 -0.150085
v -0.209312 -0.143787 -0.148265
v -0.198851 -0.046048 -0.197807
v -0.228919 -0.023425 0.174400
v -0.235071 -0.147450 0.188098
v -0.239639 -0.034438 -0.039396
v -0.198411 0.051422 -0.178142
v -0.222993 0.066779 0.172565
v -0.251264 0.058624 -0.036362
v -0.173428 0.161433 -0.144193
v -0.193092 0.168377 0.172038
v -0.028338 0.178612 0.222974
v -0.218178 0.170072 -0.024399
v -0.129353 0.229295 -0.012625
v 0.000000 -0.262257 -0.240092
v 0.000000 -0.136501 -0.276882
v 0.000000 -0.054221 -0.285981
v 0.000000 0.046396 -0.265451
v 0.000000 0.178030 0.225828
v 0.000000 0.153629 -0.218201
v 0.000000 0.219460 -0.143626
v 0.000000 0.262257 -0.026901
v 0.000000 0.237223 0.157546
v -0.246595 0.060546 0.040893
v -0.234809 -0.058024 0.088382
v 0.167048 -0.194623 -0.122444
v 0.186556 -0.138442 -0.124973
v 0.174954 -0.044890 -0.175080
v 0.196192 -0.026222 0.171227
v 0.206447 -0.152796 0.184905
v 0.207028 -0.061608 -0.034722
v 0.174321 0.044481 -0.156684
v 0.190633 0.062087 0.168111
v 0.218746 0.055126 -0.031962
v 0.154346 0.141703 -0.125873
v 0.170489 0.145510 0.164607
v 0.023908 0.153775 0.201704
v 0.191717 0.150657 -0.020957
v 0.116637 0.198940 -0.010221
v 0.213910 0.057320 0.037695
v 0.201969 -0.028844 0.085145
v -0.167048 -0.194623 -0.122444
v -0.186556 -0.138442 -0.124973
v -0.174954 -0.044890 -0.175080
v -0.196192 -0.026222 0.171227
v -0.202173 -0.147737 0.185535
v -0.207028 -0.032528 -0.034722
v -0.174321 0.044481 -0.156684
v -0.190633 0.062087 0.168111
v -0.218746 0.055126 -0.031962
v -0.154346 0.141703 -0.125873
v -0.170489 0.145510 0.164607
v -0.023908 0.153775 0.201704
v -0.191717 0.150657 -0.020957
v -0.116637 0.198940 -0.010221
v 0.000000 -0.252467 -0.208578
v 0.000000 -0.127976 -0.245003
v 0.000000 -0.052569 -0.253023
v 0.000000 0.036842 -0.233865
v 0.000000 0.153545 0.203704
v 0.000000 0.135268 -0.190782
v 0.000000 0.190912 -0.127073
v 0.000000 0.229458 -0.023270
v 0.000000 0.206798 0.144767
v -0.213910 0.057320 0.037695
v -0.201969 -0.057924 0.085145
v 0.022082 0.134697 0.283125
v -0.006255 0.135269 0.285981
v 0.140829 0.098433 0.243437
v -0.034593 0.134697 0.283125
v -0.199291 0.116023 0.266560
v 0.017653 0.103545 0.273182
v -0.006255 0.104110 0.275115
v 0.153956 0.121834 0.246718
v -0.030163 0.103545 0.273182
v -0.210890 0.086302 0.258131
v 0.235867 -0.151659 0.136819
v 0.203242 -0.154967 0.134536
v -0.228285 -0.152445 0.136140
v -0.195687 -0.155982 0.134434
vt 0.496536 0.865964
vt 0.496536 0.865964
vt 0.496536 0.890286
vt 0.496536 0.890286
vt 0.496536 0.865964
vt 0.496536 0.865964
vt 0.496536 0.890286
vt 0.496536 0.865964
vt 0.496536 0.890286
vt 0.496536 0.890286
vt 0.496536 0.880174
vt 0.496536 0.874506
vt 0.496536 0.890286
vt 0.496536 0.865964
vt 0.496536 0.890286
vt 0.496536 0.865964
vt 0.496536 0.890286
vt 0.496536 0.865964
vt 0.496536 0.890286
vt 0.496536 0.865964
vt 0.496536 0.890286
vt 0.496536 0.865964
vt 0.496536 0.890286
vt 0.496536 0.888295
vt 0.496536 0.870082
vt 0.496536 0.876643
vt 0.496536 0.887020
vt 0.472214 0.865964
vt 0.496536 0.865964
vt 0.496536 0.890286
vt 0.496536 0.890286
vt 0.496536 0.886199
vt 0.496536 0.865964
vt 0.496536 0.865964
vt 0.496536 0.865964
vt 0.496536 0.890286
vt 0.496536 0.865964
vt 0.496536 0.890286
vt 0.496536 0.890286
vt 0.496536 0.890286
vt 0.496536 0.890286
vt 0.496536 0.890286
vt 0.496536 0.874506
vt 0.496536 0.880174
vt 0.496536 0.890286
vt 0.496536 0.865964
vt 0.496536 0.890286
vt 0.496536 0.890286
vt 0.496536 0.865964
vt 0.496536 0.890286
vt 0.496536 0.865964
vt 0.496536 0.890286
vt 0.496536 0.888295
vt 0.472214 0.865964
vt 0.496536 0.865964
vt 0.496536 0.885657
vt 0.496536 0.890286
vt 0.496536 0.865964
vt 0.496536 0.865964
vt 0.496536 0.865964
vt 0.496536 0.890286
vt 0.496536 0.865964
vt 0.496536 0.890286
vt 0.496536 0.890286
vt 0.496536 0.865964
vt 0.496536 0.865964
vt 0.496536 0.890286
vt 0.496536 0.865964
vt 0.496536 0.890286
vt 0.496536 0.890286
vt 0.496536 0.874506
vt 0.496536 0.880174
vt 0.496536 0.890286
vt 0.496536 0.865964
vt 0.496536 0.890286
vt 0.496536 0.865964
vt 0.496536 0.890286
vt 0.496536 0.865964
vt 0.496536 0.890286
vt 0.496536 0.865964
vt 0.496536 0.890286
vt 0.496536 0.865964
vt 0.496536 0.888295
vt 0.496536 0.870082
vt 0.496536 0.876643
vt 0.472214 0.865964
vt 0.496536 0.887020
vt 0.496536 0.865964
vt 0.496536 0.890286
vt 0.496536 0.886222
vt 0.496536 0.890286
vt 0.496536 0.865964
vt 0.496536 0.865964
vt 0.496536 0.865964
vt 0.496536 0.865964
vt 0.496536 0.890286
vt 0.496536 0.890286
vt 0.496536 0.890286
vt 0.496536 0.890286
vt 0.496536 0.890286
vt 0.496536 0.880174
vt 0.496536 0.874506
vt 0.496536 0.890286
vt 0.496536 0.865964
vt 0.496536 0.890286
vt 0.496536 0.890286
vt 0.496536 0.865964
vt 0.496536 0.890286
vt 0.496536 0.865964
vt 0.496536 0.890286
vt 0.496536 0.890286
vt 0.496536 0.888295
vt 0.472214 0.865964
vt 0.496536 0.865964
vt 0.496536 0.890286
vt 0.496536 0.885745
vt 0.496536 0.865964
vt 0.496536 0.865964
vt 0.496536 0.890286
vt 0.496536 0.865964
vt 0.482771 0.865964
vt 0.472214 0.865964
vt 0.496536 0.890286
vt 0.496536 0.865964
vt 0.472214 0.865964
vt 0.496536 0.890286
vt 0.496536 0.890286
vt 0.472214 0.865964
vt 0.496536 0.865964
vt 0.482132 0.865964
vt 0.496536 0.865964
vt 0.496536 0.880368
vt 0.472214 0.865964
vn 0.9675 -0.0241 -0.2518
vn 0.4968 -0.2289 -0.8371
vn 0.4544 -0.2519 -0.8544
vn 0.9910 0.0045 0.1340
vn 0.9543 -0.0178 -0.2983
vn 0.3921 0.1838 -0.9014
vn 0.8861 0.3047 -0.3491
vn 0.9433 0.3029 0.1358
vn 0.3603 0.3627 -0.8594
vn 0.5137 0.8204 -0.2511
vn 0.2413 0.7275 -0.6422
vn 0.2828 0.9438 0.1710
vn 0.2309 0.7723 0.5918
vn 0.5602 0.8246 0.0787
vn 0.2842 0.8935 -0.3477
vn 0.0504 0.7546 0.6542
vn 0.9986 0.0491 0.0171
vn 0.9933 -0.0966 0.0632
vn 0.9589 0.2792 0.0510
vn -0.9686 -0.0219 -0.2478
vn -0.4968 -0.2289 -0.8371
vn -0.4544 -0.2519 -0.8544
vn -0.9910 0.0037 0.1336
vn -0.9548 -0.0207 -0.2965
vn -0.3921 0.1838 -0.9014
vn -0.8861 0.3047 -0.3491
vn -0.9433 0.3029 0.1358
vn -0.3603 0.3627 -0.8594
vn -0.5137 0.8204 -0.2511
vn -0.2413 0.7275 -0.6422
vn -0.2828 0.9438 0.1710
vn -0.2309 0.7723 0.5918
vn -0.5602 0.8246 0.0787
vn -0.2842 0.8935 -0.3477
vn -0.0504 0.7546 0.6542
vn -1.0000 -0.0033 -0.0056
vn -0.9941 -0.1026 0.0352
vn -0.9589 0.2792 0.0510
vn -0.9749 -0.0017 0.2226
vn -0.5129 0.2335 0.8261
vn -0.4623 0.2599 0.8478
vn -0.9911 -0.0023 -0.1329
vn -0.9604 0.0231 0.2777
vn -0.3915 -0.1905 0.9003
vn -0.8928 -0.2921 0.3429
vn -0.9519 -0.2753 -0.1344
vn -0.3569 -0.3617 0.8613
vn -0.4985 -0.8305 0.2485
vn -0.2382 -0.7315 0.6389
vn -0.2832 -0.9447 -0.1652
vn -0.2000 -0.7575 -0.6215
vn -0.5475 -0.8324 -0.0857
vn -0.2817 -0.8962 0.3427
vn -0.0489 -0.7411 -0.6696
vn -0.9986 -0.0498 -0.0171
vn -0.9925 0.1002 -0.0703
vn -0.9623 -0.2655 -0.0584
vn 0.9748 -0.0015 0.2229
vn 0.5129 0.2335 0.8261
vn 0.4623 0.2599 0.8478
vn 0.9912 -0.0019 -0.1327
vn 0.9611 0.0273 0.2750
vn 0.3915 -0.1905 0.9003
vn 0.8928 -0.2921 0.3429
vn 0.9519 -0.2753 -0.1344
vn 0.3569 -0.3617 0.8613
vn 0.4985 -0.8305 0.2485
vn 0.2382 -0.7315 0.6389
vn 0.2832 -0.9447 -0.1652
vn 0.2000 -0.7575 -0.6215
vn 0.5475 -0.8324 -0.0857
vn 0.2817 -0.8962 0.3427
vn 0.0489 -0.7411 -0.6696
vn 1.0000 0.0026 0.0044
vn 0.9935 0.1073 -0.0387
vn 0.9623 -0.2655 -0.0584
vn -0.0908 0.0963 0.9912
vn 0.1881 -0.7938 0.5783
vn -0.1186 0.0199 0.9927
vn 0.0590 0.8070 0.5876
vn 0.7924 0.2361 0.5624
vn -0.0239 -0.9649 0.2614
vn 0.0959 -0.3634 -0.9267
vn 0.7251 -0.2841 0.6273
vn 0.0916 0.1084 0.9899
vn 0.0000 -0.9432 0.3322
vn -0.2531 -0.6884 0.6797
vn 0.1186 0.0199 0.9927
vn 0.0525 -0.8212 -0.5682
vn 0.1481 -0.8429 -0.5172
vn 0.1960 -0.0317 0.9801
vn 0.0344 -0.9802 -0.1952
vn -0.0500 -0.9914 0.1209
vn -0.7251 -0.2841 0.6273
vn -0.9481 -0.1082 -0.2991
vn -0.1490 0.8060 0.5729
vn -0.1798 -0.8056 -0.5645
vn 0.0795 -0.3208 0.9438
vn -0.0582 0.8128 0.5796
vn -0.0530 -0.8169 -0.5744
vn 0.3087 -0.6823 0.6627
vn 0.2350 0.7687 0.5948
vn -0.0583 -0.2821 0.9576
vn -0.0795 -0.3208 0.9438
vn 0.2202 -0.2962 0.9294
vn -0.8592 -0.2267 -0.4587
vn -0.1974 0.8630 0.4650
vn 0.1274 -0.9904 0.0545
vn -0.0908 -0.4532 -0.8868
usemtl Hair.001
s off
f 2/1/1 3/2/1 6/3/1
f 1/4/2 31/5/2 32/6/2 2/7/2
f 2/7/3 32/6/3 33/8/3 3/9/3
f 4/10/4 16/11/4 15/12/4 8/13/4
f 6/3/5 3/2/5 7/14/5 9/15/5
f 3/9/6 33/8/6 34/16/6 7/17/6
f 9/15/7 7/14/7 10/18/7 13/19/7
f 8/13/8 15/12/8 13/20/8 11/21/8
f 7/17/9 34/16/9 36/22/9 10/23/9
f 13/19/10 10/18/10 14/24/10
f 37/25/11 10/18/11 36/22/11
f 38/26/12 39/27/12 11/28/12 14/24/12
f 11/28/13 39/27/13 12/29/13
f 14/24/14 11/28/14 13/19/14
f 14/24/15 10/18/15 37/25/15 38/26/15
f 12/29/16 39/27/16 35/30/16
f 16/11/17 4/10/17 5/31/17 93/32/17
f 15/12/18 16/11/18 6/33/18 9/34/18
f 13/20/19 15/12/19 9/34/19
f 18/35/20 22/36/20 19/37/20
f 17/38/21 18/39/21 32/6/21 31/5/21
f 18/39/22 19/40/22 33/8/22 32/6/22
f 20/41/23 24/42/23 40/43/23 41/44/23
f 22/36/24 25/45/24 23/46/24 19/37/24
f 19/40/25 23/47/25 34/16/25 33/8/25
f 25/45/26 29/48/26 26/49/26 23/46/26
f 24/42/27 27/50/27 29/51/27 40/43/27
f 23/47/28 26/52/28 36/22/28 34/16/28
f 29/48/29 30/53/29 26/49/29
f 37/25/30 36/22/30 26/49/30
f 38/26/31 30/53/31 27/54/31 39/27/31
f 27/54/32 28/55/32 39/27/32
f 30/53/33 29/48/33 27/54/33
f 30/53/34 38/26/34 37/25/34 26/49/34
f 28/55/35 35/30/35 39/27/35
f 41/44/36 95/56/36 21/57/36 20/41/36
f 40/43/37 25/58/37 22/59/37 41/44/37
f 29/51/38 25/58/38 40/43/38
f 43/60/39 47/61/39 44/62/39
f 42/63/40 43/64/40 73/65/40 72/66/40
f 43/64/41 44/67/41 74/68/41 73/65/41
f 45/69/42 49/70/42 56/71/42 57/72/42
f 47/61/43 50/73/43 48/74/43 44/62/43
f 44/67/44 48/75/44 75/76/44 74/68/44
f 50/73/45 54/77/45 51/78/45 48/74/45
f 49/70/46 52/79/46 54/80/46 56/71/46
f 48/75/47 51/81/47 77/82/47 75/76/47
f 54/77/48 55/83/48 51/78/48
f 78/84/49 77/82/49 51/78/49
f 79/85/50 55/83/50 52/86/50 80/87/50
f 52/86/51 53/88/51 80/87/51
f 55/83/52 54/77/52 52/86/52
f 55/83/53 79/85/53 78/84/53 51/78/53
f 53/88/54 76/89/54 80/87/54
f 57/72/55 94/90/55 46/91/55 45/69/55
f 56/71/56 50/92/56 47/93/56 57/72/56
f 54/80/57 50/92/57 56/71/57
f 59/94/58 60/95/58 63/96/58
f 58/97/59 72/66/59 73/65/59 59/98/59
f 59/98/60 73/65/60 74/68/60 60/99/60
f 61/100/61 82/101/61 81/102/61 65/103/61
f 63/96/62 60/95/62 64/104/62 66/105/62
f 60/99/63 74/68/63 75/76/63 64/106/63
f 66/105/64 64/104/64 67/107/64 70/108/64
f 65/103/65 81/102/65 70/109/65 68/110/65
f 64/106/66 75/76/66 77/82/66 67/111/66
f 70/108/67 67/107/67 71/112/67
f 78/84/68 67/107/68 77/82/68
f 79/85/69 80/87/69 68/113/69 71/112/69
f 68/113/70 80/87/70 69/114/70
f 71/112/71 68/113/71 70/108/71
f 71/112/72 67/107/72 78/84/72 79/85/72
f 69/114/73 80/87/73 76/89/73
f 82/101/74 61/100/74 62/115/74 96/116/74
f 81/102/75 82/101/75 63/117/75 66/118/75
f 70/109/76 81/102/76 66/118/76
f 5/31/77 4/10/77 45/69/77 46/91/77
f 2/1/78 6/3/78 47/61/78 43/60/78
f 4/10/79 8/13/79 49/70/79 45/69/79
f 12/29/80 35/30/80 84/119/80 83/120/80
f 11/28/81 90/121/81 8/122/81
f 6/33/82 16/11/82 57/72/82 47/93/82
f 16/11/83 93/32/83 94/90/83 57/72/83
f 1/4/84 2/7/84 43/64/84 42/63/84
f 20/41/85 21/57/85 62/115/85 61/100/85
f 1/4/86 42/63/86 72/66/86 58/97/86 17/38/86 31/5/86
f 22/36/87 18/35/87 59/94/87 63/96/87
f 24/42/88 20/41/88 61/100/88 65/103/88
f 69/114/89 76/89/89 89/123/89 91/124/89
f 68/113/90 69/114/90 91/124/90 92/125/90
f 27/50/91 24/42/91 65/103/91 68/110/91
f 41/44/92 22/59/92 63/117/92 82/101/92
f 21/57/93 95/56/93 96/116/93 62/115/93
f 18/39/94 17/38/94 58/97/94 59/98/94
f 27/50/95 68/110/95 92/126/95 87/127/95
f 28/55/96 87/128/96 86/129/96
f 53/88/97 52/86/97 85/130/97 88/131/97
f 88/131/98 83/120/98 84/119/98 89/123/98
f 35/30/99 28/55/99 86/129/99 84/119/99
f 76/89/100 53/88/100 88/131/100 89/123/100
f 90/121/101 85/132/101 49/70/101 8/122/101
f 90/121/102 11/28/102 12/29/102 83/120/102
f 91/124/103 86/129/103 87/127/103 92/125/103
f 89/123/104 84/119/104 86/129/104 91/124/104
f 83/120/105 88/131/105 85/132/105 90/121/105
f 85/130/106 52/86/106 49/133/106
f 87/128/107 28/55/107 27/54/107
f 94/90/108 93/32/108 5/31/108 46/91/108
f 96/116/109 95/56/109 41/44/109 82/101/109
