# Blender v2.79 (sub 0) OBJ File: 'Male_Hairstyle_3.blend'
# www.blender.org
mtllib Male_Hairstyle_3.mtl
o Male_Hairstyle_3_Human_CylinderMesh.005
v 0.174178 -0.261823 -0.150127
v 0.186981 -0.208906 -0.162195
v 0.215519 -0.100943 -0.158822
v 0.205368 -0.002062 -0.208210
v 0.244723 0.050091 0.181866
v 0.246715 -0.089715 0.175092
v 0.248799 0.010756 -0.043183
v 0.204981 0.097617 -0.188200
v 0.237254 0.098395 0.169905
v 0.260196 0.103639 -0.041463
v 0.178632 0.211115 -0.153394
v 0.196615 0.216200 0.180025
v 0.030474 0.224115 0.229792
v 0.225364 0.219704 -0.029580
v 0.132821 0.281876 -0.017486
v 0.255567 0.105355 0.037331
v 0.238632 0.017325 0.083291
v 0.198116 0.106161 0.236497
v 0.031237 0.116497 0.290626
v 0.206160 0.060789 0.239874
v 0.038053 0.067067 0.296238
v 0.259906 -0.075709 0.090452
v -0.174178 -0.261823 -0.150127
v -0.186981 -0.208906 -0.162195
v -0.215519 -0.100943 -0.158822
v -0.205368 -0.002062 -0.208210
v -0.244723 0.050091 0.181866
v -0.246715 -0.089715 0.175092
v -0.248799 0.010756 -0.043183
v -0.204981 0.097617 -0.188200
v -0.237254 0.098395 0.169905
v -0.260196 0.103639 -0.041463
v -0.178632 0.211115 -0.153394
v -0.196615 0.216200 0.180025
v -0.030474 0.224115 0.229792
v -0.225364 0.219704 -0.029580
v -0.132821 0.281876 -0.017486
v 0.000000 -0.315505 -0.217544
v 0.000000 -0.219821 -0.253132
v 0.000000 -0.094523 -0.289781
v 0.000000 -0.010370 -0.299174
v 0.000000 0.093304 -0.278270
v 0.000000 0.223968 0.232387
v 0.000000 0.202939 -0.229884
v 0.000000 0.271548 -0.152345
v 0.000000 0.315505 -0.032096
v 0.000000 0.289822 0.156827
v -0.255567 0.105355 0.037331
v -0.238632 0.017325 0.083291
v -0.198116 0.106161 0.236497
v -0.031237 0.116497 0.290626
v 0.000000 0.116280 0.293298
v -0.206160 0.060789 0.239872
v -0.038053 0.067067 0.296238
v 0.000000 0.066085 0.299174
v -0.259906 -0.075709 0.090452
v 0.155373 -0.248843 -0.114887
v 0.167048 -0.198757 -0.126648
v 0.186556 -0.094140 -0.129177
v 0.174954 -0.000588 -0.179285
v 0.203795 0.046325 0.173230
v 0.204926 -0.093762 0.174019
v 0.207028 0.011774 -0.038927
v 0.174321 0.088783 -0.160889
v 0.197255 0.091784 0.158935
v 0.218746 0.099428 -0.036167
v 0.154346 0.186005 -0.130078
v 0.170489 0.189812 0.160402
v 0.023908 0.198077 0.197499
v 0.191717 0.194959 -0.025161
v 0.116637 0.243242 -0.014426
v 0.213910 0.101622 0.033490
v 0.196739 0.015458 0.080940
v 0.173348 0.094459 0.204660
v 0.023908 0.103838 0.251256
v 0.179115 0.052591 0.208803
v 0.029675 0.061970 0.255399
v 0.218348 -0.081518 0.088667
v -0.155373 -0.248843 -0.114887
v -0.167048 -0.198757 -0.126648
v -0.186556 -0.094140 -0.129177
v -0.174954 -0.000588 -0.179285
v -0.203795 0.046325 0.173230
v -0.204926 -0.093762 0.174019
v -0.207028 0.011774 -0.038927
v -0.174321 0.088783 -0.160889
v -0.197255 0.091784 0.158935
v -0.218746 0.099428 -0.036167
v -0.154346 0.186005 -0.130078
v -0.170489 0.189812 0.160402
v -0.023908 0.198077 0.197499
v -0.191717 0.194959 -0.025161
v -0.116637 0.243242 -0.014426
v 0.000000 -0.300987 -0.178133
v 0.000000 -0.208165 -0.212783
v 0.000000 -0.083674 -0.249207
v 0.000000 -0.008267 -0.257228
v 0.000000 0.081144 -0.238070
v 0.000000 0.197847 0.199500
v 0.000000 0.179570 -0.194986
v 0.000000 0.235214 -0.131278
v 0.000000 0.273760 -0.027475
v 0.000000 0.251100 0.140562
v -0.213910 0.101622 0.033490
v -0.196739 0.015458 0.080940
v -0.173348 0.094459 0.204660
v -0.023908 0.103838 0.251256
v 0.000000 0.103608 0.253256
v -0.179115 0.052591 0.208803
v -0.029675 0.061970 0.255399
v 0.000000 0.061740 0.257400
v -0.218348 -0.081518 0.088667
vt 0.496536 0.865964
vt 0.496536 0.890286
vt 0.496536 0.865964
vt 0.496536 0.890286
vt 0.496536 0.865964
vt 0.496536 0.865964
vt 0.496536 0.890286
vt 0.496536 0.865964
vt 0.496536 0.890286
vt 0.496536 0.865964
vt 0.496536 0.890286
vt 0.496536 0.890286
vt 0.496536 0.880174
vt 0.496536 0.874506
vt 0.496536 0.890286
vt 0.496536 0.865964
vt 0.496536 0.890286
vt 0.496536 0.865964
vt 0.496536 0.890286
vt 0.496536 0.865964
vt 0.496536 0.890286
vt 0.496536 0.865964
vt 0.496536 0.890286
vt 0.496536 0.865964
vt 0.496536 0.890286
vt 0.496536 0.888295
vt 0.496536 0.870082
vt 0.496536 0.876643
vt 0.496536 0.887020
vt 0.472214 0.865964
vt 0.496536 0.865964
vt 0.496536 0.890286
vt 0.496536 0.865964
vt 0.496536 0.880174
vt 0.496536 0.865964
vt 0.496536 0.865964
vt 0.472214 0.865964
vt 0.496536 0.890286
vt 0.496536 0.865964
vt 0.472214 0.865964
vt 0.496536 0.890286
vt 0.496536 0.890286
vt 0.496536 0.865964
vt 0.496536 0.890286
vt 0.496536 0.865964
vt 0.496536 0.890286
vt 0.496536 0.865964
vt 0.496536 0.890286
vt 0.496536 0.890286
vt 0.496536 0.890286
vt 0.496536 0.890286
vt 0.496536 0.874506
vt 0.496536 0.880174
vt 0.496536 0.890286
vt 0.496536 0.865964
vt 0.496536 0.890286
vt 0.496536 0.890286
vt 0.496536 0.865964
vt 0.496536 0.890286
vt 0.496536 0.865964
vt 0.496536 0.890286
vt 0.496536 0.888295
vt 0.472214 0.865964
vt 0.496536 0.865964
vt 0.496536 0.865964
vt 0.496536 0.880174
vt 0.496536 0.865964
vt 0.472214 0.865964
vt 0.496536 0.865964
vt 0.472214 0.865964
vt 0.496536 0.865964
vt 0.496536 0.890286
vt 0.496536 0.865964
vt 0.496536 0.890286
vt 0.496536 0.865964
vt 0.496536 0.890286
vt 0.496536 0.865964
vt 0.496536 0.890286
vt 0.496536 0.865964
vt 0.496536 0.890286
vt 0.496536 0.865964
vt 0.496536 0.890286
vt 0.496536 0.865964
vt 0.496536 0.890286
vt 0.496536 0.890286
vt 0.496536 0.874506
vt 0.496536 0.880174
vt 0.496536 0.890286
vt 0.496536 0.865964
vt 0.496536 0.890286
vt 0.496536 0.865964
vt 0.496536 0.890286
vt 0.496536 0.865964
vt 0.496536 0.890286
vt 0.496536 0.865964
vt 0.496536 0.890286
vt 0.496536 0.865964
vt 0.496536 0.888295
vt 0.496536 0.870082
vt 0.496536 0.876643
vt 0.472214 0.865964
vt 0.496536 0.887020
vt 0.496536 0.865964
vt 0.496536 0.890286
vt 0.496536 0.865964
vt 0.496536 0.880174
vt 0.496536 0.865964
vt 0.472214 0.865964
vt 0.496536 0.865964
vt 0.496536 0.890286
vt 0.472214 0.865964
vt 0.496536 0.865964
vt 0.496536 0.890286
vt 0.496536 0.890286
vt 0.496536 0.890286
vt 0.496536 0.865964
vt 0.496536 0.865964
vt 0.496536 0.865964
vt 0.496536 0.890286
vt 0.496536 0.890286
vt 0.496536 0.890286
vt 0.496536 0.890286
vt 0.496536 0.880174
vt 0.496536 0.874506
vt 0.496536 0.890286
vt 0.496536 0.865964
vt 0.496536 0.890286
vt 0.496536 0.890286
vt 0.496536 0.865964
vt 0.496536 0.890286
vt 0.496536 0.865964
vt 0.496536 0.890286
vt 0.496536 0.890286
vt 0.496536 0.888295
vt 0.472214 0.865964
vt 0.496536 0.865964
vt 0.496536 0.865964
vt 0.496536 0.880174
vt 0.496536 0.865964
vt 0.496536 0.865964
vt 0.472214 0.865964
vt 0.496536 0.865964
vt 0.472214 0.865964
vt 0.496536 0.890286
vn 0.4277 -0.3092 -0.8494
vn 0.9672 -0.0268 -0.2525
vn 0.4764 -0.1810 -0.8604
vn 0.4525 -0.2498 -0.8561
vn 0.9973 -0.0447 0.0577
vn 0.9536 -0.0206 -0.3005
vn 0.3922 0.1822 -0.9017
vn 0.8850 0.3071 -0.3501
vn 0.9372 0.3199 0.1387
vn 0.3612 0.3629 -0.8590
vn 0.5168 0.8182 -0.2518
vn 0.2421 0.7266 -0.6430
vn 0.2865 0.9419 0.1754
vn 0.2169 0.7687 0.6017
vn 0.5635 0.8211 0.0910
vn 0.2848 0.8928 -0.3489
vn 0.0523 0.7528 0.6561
vn 0.9716 0.2273 0.0663
vn 0.9877 -0.1359 0.0767
vn 0.9580 0.2824 0.0501
vn 0.2877 0.4567 0.8418
vn 0.0712 0.4912 0.8682
vn 0.8469 0.2519 0.4683
vn 0.3164 0.1386 0.9384
vn 0.0780 0.1195 0.9898
vn 0.8420 0.2201 0.4925
vn 0.9946 0.0994 0.0284
vn -0.4277 -0.3092 -0.8494
vn -0.9672 -0.0268 -0.2525
vn -0.4764 -0.1810 -0.8604
vn -0.4525 -0.2498 -0.8561
vn -0.9973 -0.0447 0.0577
vn -0.9536 -0.0206 -0.3005
vn -0.3922 0.1822 -0.9017
vn -0.8850 0.3071 -0.3501
vn -0.9372 0.3199 0.1387
vn -0.3612 0.3629 -0.8590
vn -0.5168 0.8182 -0.2518
vn -0.2421 0.7266 -0.6430
vn -0.2865 0.9419 0.1754
vn -0.2169 0.7687 0.6017
vn -0.5635 0.8211 0.0910
vn -0.2848 0.8928 -0.3489
vn -0.0523 0.7528 0.6561
vn -0.9716 0.2273 0.0663
vn -0.9877 -0.1359 0.0767
vn -0.9580 0.2824 0.0501
vn -0.2877 0.4567 0.8418
vn -0.0712 0.4912 0.8682
vn -0.8469 0.2519 0.4683
vn -0.3164 0.1386 0.9384
vn -0.0780 0.1195 0.9898
vn -0.8420 0.2201 0.4925
vn -0.9946 0.0994 0.0284
vn -0.4477 0.3091 0.8390
vn -0.9748 -0.0015 0.2229
vn -0.4944 0.1864 0.8490
vn -0.4623 0.2599 0.8478
vn -0.9971 0.0573 -0.0495
vn -0.9611 0.0273 0.2750
vn -0.3915 -0.1905 0.9003
vn -0.8928 -0.2921 0.3429
vn -0.9507 -0.2819 -0.1294
vn -0.3569 -0.3617 0.8613
vn -0.4985 -0.8305 0.2485
vn -0.2382 -0.7315 0.6389
vn -0.2832 -0.9447 -0.1652
vn -0.2000 -0.7575 -0.6215
vn -0.5475 -0.8324 -0.0857
vn -0.2817 -0.8962 0.3427
vn -0.0489 -0.7411 -0.6696
vn -0.9719 -0.2227 -0.0766
vn -0.9863 0.1426 -0.0831
vn -0.9623 -0.2655 -0.0584
vn -0.2681 -0.4456 -0.8541
vn -0.0678 -0.4943 -0.8666
vn -0.8678 -0.2304 -0.4402
vn -0.3027 -0.1351 -0.9435
vn -0.0732 -0.1032 -0.9920
vn -0.8476 -0.2213 -0.4822
vn -0.9950 -0.0964 -0.0256
vn 0.4477 0.3091 0.8390
vn 0.9748 -0.0015 0.2229
vn 0.4944 0.1864 0.8490
vn 0.4623 0.2599 0.8478
vn 0.9971 0.0573 -0.0495
vn 0.9611 0.0273 0.2750
vn 0.3915 -0.1905 0.9003
vn 0.8928 -0.2921 0.3429
vn 0.9507 -0.2819 -0.1294
vn 0.3569 -0.3617 0.8613
vn 0.4985 -0.8305 0.2485
vn 0.2382 -0.7315 0.6389
vn 0.2832 -0.9447 -0.1652
vn 0.2000 -0.7575 -0.6215
vn 0.5475 -0.8324 -0.0857
vn 0.2817 -0.8962 0.3427
vn 0.0489 -0.7411 -0.6696
vn 0.9719 -0.2227 -0.0766
vn 0.9863 0.1426 -0.0831
vn 0.9623 -0.2655 -0.0584
vn 0.2681 -0.4456 -0.8541
vn 0.0678 -0.4943 -0.8666
vn 0.8678 -0.2304 -0.4402
vn 0.3027 -0.1351 -0.9435
vn 0.0732 -0.1032 -0.9920
vn 0.8476 -0.2213 -0.4822
vn 0.9950 -0.0964 -0.0256
vn 0.8612 -0.0889 0.5004
vn 0.1458 -0.9159 0.3741
vn 0.2455 -0.6975 0.6732
vn 0.1209 -0.9837 -0.1330
vn 0.7652 -0.1754 0.6195
vn 0.0259 -0.9935 0.1109
vn 0.0090 -0.9841 0.1775
vn 0.0491 -0.9764 0.2102
vn -0.1145 -0.0225 0.9932
vn 0.0304 -0.8222 -0.5684
vn -0.8612 -0.0889 0.5004
vn -0.1458 -0.9159 0.3741
vn -0.2455 -0.6975 0.6732
vn -0.1209 -0.9837 -0.1330
vn -0.7652 -0.1754 0.6195
vn -0.0259 -0.9935 0.1109
vn -0.0090 -0.9841 0.1775
vn -0.0491 -0.9764 0.2102
vn 0.1145 -0.0225 0.9932
vn -0.0304 -0.8222 -0.5684
usemtl Hair.001
s off
f 39/1/1 2/2/1 1/3/1 38/4/1
f 3/5/2 4/6/2 7/7/2
f 2/2/3 39/1/3 40/8/3 3/9/3
f 3/9/4 40/8/4 41/10/4 4/11/4
f 5/12/5 17/13/5 16/14/5 9/15/5
f 7/7/6 4/6/6 8/16/6 10/17/6
f 4/11/7 41/10/7 42/18/7 8/19/7
f 10/17/8 8/16/8 11/20/8 14/21/8
f 9/15/9 16/14/9 14/22/9 12/23/9
f 8/19/10 42/18/10 44/24/10 11/25/10
f 14/21/11 11/20/11 15/26/11
f 45/27/12 11/20/12 44/24/12
f 46/28/13 47/29/13 12/30/13 15/26/13
f 12/30/14 47/29/14 13/31/14
f 15/26/15 12/30/15 14/21/15
f 15/26/16 11/20/16 45/27/16 46/28/16
f 13/31/17 47/29/17 43/32/17
f 7/33/18 17/13/18 22/34/18
f 16/14/19 17/13/19 7/33/19 10/35/19
f 14/22/20 16/14/20 10/35/20
f 12/30/21 13/31/21 19/36/21 18/37/21
f 13/31/22 43/32/22 52/38/22 19/36/22
f 12/30/23 18/37/23 9/15/23
f 18/37/24 19/36/24 21/39/24 20/40/24
f 19/36/25 52/38/25 55/41/25 21/39/25
f 9/15/26 18/37/26 20/40/26 5/12/26
f 17/13/27 5/12/27 6/42/27 22/34/27
f 39/1/28 38/4/28 23/43/28 24/44/28
f 25/45/29 29/46/29 26/47/29
f 24/44/30 25/48/30 40/8/30 39/1/30
f 25/48/31 26/49/31 41/10/31 40/8/31
f 27/50/32 31/51/32 48/52/32 49/53/32
f 29/46/33 32/54/33 30/55/33 26/47/33
f 26/49/34 30/56/34 42/18/34 41/10/34
f 32/54/35 36/57/35 33/58/35 30/55/35
f 31/51/36 34/59/36 36/60/36 48/52/36
f 30/56/37 33/61/37 44/24/37 42/18/37
f 36/57/38 37/62/38 33/58/38
f 45/27/39 44/24/39 33/58/39
f 46/28/40 37/62/40 34/63/40 47/29/40
f 34/63/41 35/64/41 47/29/41
f 37/62/42 36/57/42 34/63/42
f 37/62/43 46/28/43 45/27/43 33/58/43
f 35/64/44 43/32/44 47/29/44
f 29/65/45 56/66/45 49/53/45
f 48/52/46 32/67/46 29/65/46 49/53/46
f 36/60/47 32/67/47 48/52/47
f 34/63/48 50/68/48 51/69/48 35/64/48
f 35/64/49 51/69/49 52/38/49 43/32/49
f 34/63/50 31/51/50 50/68/50
f 50/68/51 53/70/51 54/71/51 51/69/51
f 51/69/52 54/71/52 55/41/52 52/38/52
f 31/51/53 27/50/53 53/70/53 50/68/53
f 49/53/54 56/66/54 28/72/54 27/50/54
f 95/73/55 94/74/55 57/75/55 58/76/55
f 59/77/56 63/78/56 60/79/56
f 58/76/57 59/80/57 96/81/57 95/73/57
f 59/80/58 60/82/58 97/83/58 96/81/58
f 61/84/59 65/85/59 72/86/59 73/87/59
f 63/78/60 66/88/60 64/89/60 60/79/60
f 60/82/61 64/90/61 98/91/61 97/83/61
f 66/88/62 70/92/62 67/93/62 64/89/62
f 65/85/63 68/94/63 70/95/63 72/86/63
f 64/90/64 67/96/64 100/97/64 98/91/64
f 70/92/65 71/98/65 67/93/65
f 101/99/66 100/97/66 67/93/66
f 102/100/67 71/98/67 68/101/67 103/102/67
f 68/101/68 69/103/68 103/102/68
f 71/98/69 70/92/69 68/101/69
f 71/98/70 102/100/70 101/99/70 67/93/70
f 69/103/71 99/104/71 103/102/71
f 63/105/72 78/106/72 73/87/72
f 72/86/73 66/107/73 63/105/73 73/87/73
f 70/95/74 66/107/74 72/86/74
f 68/101/75 74/108/75 75/109/75 69/103/75
f 69/103/76 75/109/76 108/110/76 99/104/76
f 68/101/77 65/85/77 74/108/77
f 74/108/78 76/111/78 77/112/78 75/109/78
f 75/109/79 77/112/79 111/113/79 108/110/79
f 65/85/80 61/84/80 76/111/80 74/108/80
f 73/87/81 78/106/81 62/114/81 61/84/81
f 95/73/82 80/115/82 79/116/82 94/74/82
f 81/117/83 82/118/83 85/119/83
f 80/115/84 95/73/84 96/81/84 81/120/84
f 81/120/85 96/81/85 97/83/85 82/121/85
f 83/122/86 105/123/86 104/124/86 87/125/86
f 85/119/87 82/118/87 86/126/87 88/127/87
f 82/121/88 97/83/88 98/91/88 86/128/88
f 88/127/89 86/126/89 89/129/89 92/130/89
f 87/125/90 104/124/90 92/131/90 90/132/90
f 86/128/91 98/91/91 100/97/91 89/133/91
f 92/130/92 89/129/92 93/134/92
f 101/99/93 89/129/93 100/97/93
f 102/100/94 103/102/94 90/135/94 93/134/94
f 90/135/95 103/102/95 91/136/95
f 93/134/96 90/135/96 92/130/96
f 93/134/97 89/129/97 101/99/97 102/100/97
f 91/136/98 103/102/98 99/104/98
f 85/137/99 105/123/99 112/138/99
f 104/124/100 105/123/100 85/137/100 88/139/100
f 92/131/101 104/124/101 88/139/101
f 90/135/102 91/136/102 107/140/102 106/141/102
f 91/136/103 99/104/103 108/110/103 107/140/103
f 90/135/104 106/141/104 87/125/104
f 106/141/105 107/140/105 110/142/105 109/143/105
f 107/140/106 108/110/106 111/113/106 110/142/106
f 87/125/107 106/141/107 109/143/107 83/122/107
f 105/123/108 83/122/108 84/144/108 112/138/108
f 1/3/109 2/2/109 58/76/109 57/75/109
f 38/4/110 1/3/110 57/75/110 94/74/110
f 3/5/111 7/7/111 63/78/111 59/77/111
f 22/34/112 6/42/112 62/114/112 78/106/112
f 2/2/113 3/9/113 59/80/113 58/76/113
f 21/39/114 55/41/114 111/113/114 77/112/114
f 20/40/115 21/39/115 77/112/115 76/111/115
f 5/12/116 20/40/116 76/111/116 61/84/116
f 6/42/117 5/12/117 61/84/117 62/114/117
f 7/33/118 22/34/118 78/106/118 63/105/118
f 24/44/119 23/43/119 79/116/119 80/115/119
f 23/43/120 38/4/120 94/74/120 79/116/120
f 29/46/121 25/45/121 81/117/121 85/119/121
f 28/72/122 56/66/122 112/138/122 84/144/122
f 25/48/123 24/44/123 80/115/123 81/120/123
f 55/41/124 54/71/124 110/142/124 111/113/124
f 54/71/125 53/70/125 109/143/125 110/142/125
f 53/70/126 27/50/126 83/122/126 109/143/126
f 27/50/127 28/72/127 84/144/127 83/122/127
f 56/66/128 29/65/128 85/137/128 112/138/128
