# Blender v2.79 (sub 0) OBJ File: 'Male_Hairstyle_4.blend'
# www.blender.org
mtllib Male_Hairstyle_4.mtl
o Male_Hairstyle_4_Human_CylinderMesh.004
v 0.205086 -0.204048 -0.149070
v 0.190933 -0.106933 -0.202717
v 0.227686 -0.055901 0.182647
v 0.232016 -0.095643 -0.043400
v 0.190499 -0.009217 -0.183014
v 0.220994 -0.008016 0.167799
v 0.243660 -0.002315 -0.040470
v 0.165364 0.101181 -0.148969
v 0.182997 0.106022 0.176271
v 0.020582 0.114004 0.223625
v 0.210313 0.109839 -0.028754
v 0.121097 0.169365 -0.016919
v 0.238991 -0.000508 0.036583
v 0.221891 -0.092764 0.083050
v 0.184757 -0.001220 0.230417
v 0.021200 0.008935 0.283110
v 0.192367 -0.045924 0.233939
v 0.027816 -0.039055 0.288443
v -0.222368 -0.204048 -0.149070
v -0.208216 -0.106933 -0.202717
v -0.244969 -0.055901 0.182647
v -0.249299 -0.095643 -0.043400
v -0.207782 -0.009217 -0.183014
v -0.238276 -0.008016 0.167799
v -0.260943 -0.002315 -0.040470
v -0.182647 0.101181 -0.148969
v -0.200280 0.106022 0.176271
v -0.037864 0.114004 0.223625
v -0.227596 0.109839 -0.028754
v -0.138379 0.169365 -0.016919
v -0.008641 -0.198791 -0.281730
v -0.008641 -0.115121 -0.291201
v -0.008641 -0.014163 -0.270629
v -0.008641 0.113841 0.226107
v -0.008641 0.093336 -0.223253
v -0.008641 0.159475 -0.148349
v -0.008641 0.202401 -0.031232
v -0.008641 0.177295 0.153713
v -0.256274 -0.000508 0.036583
v -0.239174 -0.092764 0.083050
v -0.202040 -0.001220 0.230417
v -0.038483 0.008935 0.283110
v -0.008641 0.008715 0.285655
v -0.209650 -0.045924 0.233938
v -0.045099 -0.039055 0.288443
v -0.008641 -0.039894 0.291201
v 0.177914 -0.199291 -0.129194
v 0.166312 -0.105740 -0.179301
v 0.195153 -0.058827 0.173213
v 0.198387 -0.093377 -0.038944
v 0.165679 -0.016368 -0.160905
v 0.188613 -0.013368 0.158919
v 0.210105 -0.005724 -0.036183
v 0.145704 0.080853 -0.130095
v 0.161848 0.084661 0.160386
v 0.015267 0.092925 0.197483
v 0.183076 0.089808 -0.025178
v 0.107995 0.138090 -0.014443
v 0.205269 -0.003529 0.033473
v 0.188098 -0.089693 0.080924
v 0.164707 -0.010692 0.204644
v 0.015267 -0.001313 0.251240
v 0.170474 -0.052561 0.208787
v 0.021034 -0.043182 0.255383
v -0.195197 -0.199291 -0.129194
v -0.183595 -0.105740 -0.179301
v -0.212436 -0.058827 0.173213
v -0.215669 -0.093377 -0.038944
v -0.182962 -0.016368 -0.160905
v -0.205896 -0.013368 0.158919
v -0.227388 -0.005724 -0.036183
v -0.162987 0.080853 -0.130095
v -0.179131 0.084661 0.160386
v -0.032550 0.092925 0.197483
v -0.200358 0.089808 -0.025178
v -0.125278 0.138090 -0.014443
v -0.008641 -0.188826 -0.249224
v -0.008641 -0.113418 -0.257244
v -0.008641 -0.024008 -0.238086
v -0.008641 0.092695 0.199483
v -0.008641 0.074418 -0.195003
v -0.008641 0.130063 -0.131294
v -0.008641 0.168608 -0.027491
v -0.008641 0.145948 0.140546
v -0.222552 -0.003529 0.033473
v -0.205381 -0.089693 0.080924
v -0.181990 -0.010692 0.204644
v -0.032550 -0.001313 0.251240
v -0.008641 -0.001543 0.253240
v -0.187757 -0.052561 0.208787
v -0.038317 -0.043182 0.255383
v -0.008641 -0.043412 0.257383
vt 0.496536 0.865964
vt 0.496536 0.865964
vt 0.496536 0.890286
vt 0.496536 0.890286
vt 0.496536 0.865964
vt 0.496536 0.865964
vt 0.496536 0.890286
vt 0.496536 0.890286
vt 0.496536 0.880174
vt 0.496536 0.874506
vt 0.496536 0.890286
vt 0.496536 0.865964
vt 0.496536 0.890286
vt 0.496536 0.865964
vt 0.496536 0.890286
vt 0.496536 0.865964
vt 0.496536 0.890286
vt 0.496536 0.865964
vt 0.496536 0.890286
vt 0.496536 0.865964
vt 0.496536 0.890286
vt 0.496536 0.888295
vt 0.496536 0.870082
vt 0.496536 0.876643
vt 0.496536 0.887020
vt 0.472214 0.865964
vt 0.496536 0.865964
vt 0.496536 0.890286
vt 0.496536 0.865964
vt 0.496536 0.865964
vt 0.496536 0.865964
vt 0.472214 0.865964
vt 0.496536 0.890286
vt 0.496536 0.865964
vt 0.472214 0.865964
vt 0.496536 0.890286
vt 0.496536 0.865964
vt 0.496536 0.890286
vt 0.496536 0.865964
vt 0.496536 0.890286
vt 0.496536 0.890286
vt 0.496536 0.890286
vt 0.496536 0.890286
vt 0.496536 0.874506
vt 0.496536 0.880174
vt 0.496536 0.890286
vt 0.496536 0.865964
vt 0.496536 0.890286
vt 0.496536 0.890286
vt 0.496536 0.865964
vt 0.496536 0.890286
vt 0.496536 0.865964
vt 0.496536 0.890286
vt 0.496536 0.888295
vt 0.472214 0.865964
vt 0.496536 0.865964
vt 0.496536 0.865964
vt 0.496536 0.865964
vt 0.472214 0.865964
vt 0.496536 0.865964
vt 0.472214 0.865964
vt 0.496536 0.865964
vt 0.496536 0.865964
vt 0.496536 0.890286
vt 0.496536 0.865964
vt 0.496536 0.890286
vt 0.496536 0.890286
vt 0.496536 0.865964
vt 0.496536 0.865964
vt 0.496536 0.890286
vt 0.496536 0.890286
vt 0.496536 0.874506
vt 0.496536 0.880174
vt 0.496536 0.890286
vt 0.496536 0.865964
vt 0.496536 0.890286
vt 0.496536 0.865964
vt 0.496536 0.890286
vt 0.496536 0.865964
vt 0.496536 0.890286
vt 0.496536 0.865964
vt 0.496536 0.890286
vt 0.496536 0.865964
vt 0.496536 0.888295
vt 0.496536 0.870082
vt 0.496536 0.876643
vt 0.472214 0.865964
vt 0.496536 0.887020
vt 0.496536 0.865964
vt 0.496536 0.890286
vt 0.496536 0.865964
vt 0.496536 0.865964
vt 0.472214 0.865964
vt 0.496536 0.865964
vt 0.496536 0.890286
vt 0.472214 0.865964
vt 0.496536 0.865964
vt 0.496536 0.890286
vt 0.496536 0.865964
vt 0.496536 0.865964
vt 0.496536 0.890286
vt 0.496536 0.890286
vt 0.496536 0.890286
vt 0.496536 0.890286
vt 0.496536 0.880174
vt 0.496536 0.874506
vt 0.496536 0.890286
vt 0.496536 0.865964
vt 0.496536 0.890286
vt 0.496536 0.890286
vt 0.496536 0.865964
vt 0.496536 0.890286
vt 0.496536 0.865964
vt 0.496536 0.890286
vt 0.496536 0.890286
vt 0.496536 0.888295
vt 0.472214 0.865964
vt 0.496536 0.865964
vt 0.496536 0.865964
vt 0.496536 0.865964
vt 0.496536 0.865964
vt 0.472214 0.865964
vt 0.496536 0.865964
vt 0.472214 0.865964
vn 0.9683 0.0031 -0.2499
vn 0.4568 -0.2611 -0.8504
vn 0.9971 -0.0483 0.0589
vn 0.9547 -0.0209 -0.2968
vn 0.3921 0.1836 -0.9014
vn 0.8862 0.3046 -0.3489
vn 0.9395 0.3139 0.1372
vn 0.3604 0.3627 -0.8594
vn 0.5139 0.8202 -0.2512
vn 0.2414 0.7274 -0.6423
vn 0.2860 0.9424 0.1736
vn 0.2141 0.7670 0.6049
vn 0.5610 0.8229 0.0901
vn 0.2843 0.8934 -0.3479
vn 0.0517 0.7510 0.6583
vn 0.9879 -0.1354 0.0749
vn 0.9587 0.2797 0.0515
vn 0.2843 0.4549 0.8439
vn 0.0707 0.4917 0.8679
vn 0.8498 0.2486 0.4648
vn 0.3140 0.1379 0.9393
vn 0.0773 0.1168 0.9901
vn 0.8393 0.2276 0.4937
vn -0.9683 0.0031 -0.2499
vn -0.4568 -0.2611 -0.8504
vn -0.9971 -0.0483 0.0589
vn -0.9547 -0.0209 -0.2968
vn -0.3921 0.1836 -0.9014
vn -0.8862 0.3046 -0.3489
vn -0.9395 0.3139 0.1372
vn -0.3604 0.3627 -0.8594
vn -0.5139 0.8202 -0.2512
vn -0.2414 0.7274 -0.6423
vn -0.2860 0.9424 0.1736
vn -0.2141 0.7670 0.6049
vn -0.5610 0.8229 0.0901
vn -0.2843 0.8934 -0.3479
vn -0.0517 0.7510 0.6583
vn -0.9879 -0.1354 0.0749
vn -0.9587 0.2797 0.0515
vn -0.2843 0.4549 0.8439
vn -0.0707 0.4917 0.8679
vn -0.8498 0.2486 0.4648
vn -0.3141 0.1379 0.9393
vn -0.0773 0.1168 0.9901
vn -0.8393 0.2276 0.4937
vn -0.9748 -0.0015 0.2229
vn -0.4623 0.2599 0.8478
vn -0.9971 0.0573 -0.0495
vn -0.9611 0.0273 0.2750
vn -0.3915 -0.1905 0.9003
vn -0.8928 -0.2921 0.3429
vn -0.9507 -0.2819 -0.1294
vn -0.3569 -0.3617 0.8613
vn -0.4985 -0.8305 0.2485
vn -0.2382 -0.7315 0.6389
vn -0.2832 -0.9447 -0.1652
vn -0.2000 -0.7575 -0.6215
vn -0.5475 -0.8324 -0.0857
vn -0.2817 -0.8962 0.3427
vn -0.0489 -0.7411 -0.6696
vn -0.9863 0.1426 -0.0831
vn -0.9623 -0.2655 -0.0584
vn -0.2681 -0.4456 -0.8541
vn -0.0678 -0.4943 -0.8666
vn -0.8678 -0.2304 -0.4402
vn -0.3027 -0.1351 -0.9435
vn -0.0732 -0.1032 -0.9920
vn -0.8476 -0.2213 -0.4822
vn 0.9748 -0.0015 0.2229
vn 0.4623 0.2599 0.8478
vn 0.9971 0.0573 -0.0495
vn 0.9611 0.0273 0.2750
vn 0.3915 -0.1905 0.9003
vn 0.8928 -0.2921 0.3429
vn 0.9507 -0.2819 -0.1294
vn 0.3569 -0.3617 0.8613
vn 0.4985 -0.8305 0.2485
vn 0.2382 -0.7315 0.6389
vn 0.2832 -0.9447 -0.1652
vn 0.2000 -0.7575 -0.6215
vn 0.5475 -0.8324 -0.0857
vn 0.2817 -0.8962 0.3427
vn 0.0489 -0.7411 -0.6696
vn 0.9863 0.1426 -0.0831
vn 0.9623 -0.2655 -0.0584
vn 0.2681 -0.4456 -0.8541
vn 0.0678 -0.4943 -0.8666
vn 0.8678 -0.2304 -0.4402
vn 0.3027 -0.1351 -0.9435
vn 0.0732 -0.1032 -0.9920
vn 0.8476 -0.2213 -0.4822
vn -0.0606 -0.9400 0.3358
vn 0.2012 -0.6848 0.7004
vn -0.0782 -0.9967 0.0201
vn -0.1582 -0.9689 0.1903
vn 0.0241 -0.9935 0.1111
vn 0.0066 -0.9839 0.1787
vn 0.0386 -0.9771 0.2094
vn 0.0606 -0.9400 0.3358
vn -0.2012 -0.6848 0.7004
vn 0.0782 -0.9967 0.0201
vn 0.1582 -0.9689 0.1903
vn -0.0241 -0.9935 0.1111
vn -0.0066 -0.9839 0.1787
vn -0.0386 -0.9771 0.2094
usemtl Hair
s off
f 1/1/1 2/2/1 4/3/1
f 1/4/2 31/5/2 32/6/2 2/7/2
f 3/8/3 14/9/3 13/10/3 6/11/3
f 4/3/4 2/2/4 5/12/4 7/13/4
f 2/7/5 32/6/5 33/14/5 5/15/5
f 7/13/6 5/12/6 8/16/6 11/17/6
f 6/11/7 13/10/7 11/18/7 9/19/7
f 5/15/8 33/14/8 35/20/8 8/21/8
f 11/17/9 8/16/9 12/22/9
f 36/23/10 8/16/10 35/20/10
f 37/24/11 38/25/11 9/26/11 12/22/11
f 9/26/12 38/25/12 10/27/12
f 12/22/13 9/26/13 11/17/13
f 12/22/14 8/16/14 36/23/14 37/24/14
f 10/27/15 38/25/15 34/28/15
f 13/10/16 14/9/16 4/29/16 7/30/16
f 11/18/17 13/10/17 7/30/17
f 9/26/18 10/27/18 16/31/18 15/32/18
f 10/27/19 34/28/19 43/33/19 16/31/19
f 9/26/20 15/32/20 6/11/20
f 15/32/21 16/31/21 18/34/21 17/35/21
f 16/31/22 43/33/22 46/36/22 18/34/22
f 6/11/23 15/32/23 17/35/23 3/8/23
f 19/37/24 22/38/24 20/39/24
f 19/40/25 20/41/25 32/6/25 31/5/25
f 21/42/26 24/43/26 39/44/26 40/45/26
f 22/38/27 25/46/27 23/47/27 20/39/27
f 20/41/28 23/48/28 33/14/28 32/6/28
f 25/46/29 29/49/29 26/50/29 23/47/29
f 24/43/30 27/51/30 29/52/30 39/44/30
f 23/48/31 26/53/31 35/20/31 33/14/31
f 29/49/32 30/54/32 26/50/32
f 36/23/33 35/20/33 26/50/33
f 37/24/34 30/54/34 27/55/34 38/25/34
f 27/55/35 28/56/35 38/25/35
f 30/54/36 29/49/36 27/55/36
f 30/54/37 37/24/37 36/23/37 26/50/37
f 28/56/38 34/28/38 38/25/38
f 39/44/39 25/57/39 22/58/39 40/45/39
f 29/52/40 25/57/40 39/44/40
f 27/55/41 41/59/41 42/60/41 28/56/41
f 28/56/42 42/60/42 43/33/42 34/28/42
f 27/55/43 24/43/43 41/59/43
f 41/59/44 44/61/44 45/62/44 42/60/44
f 42/60/45 45/62/45 46/36/45 43/33/45
f 24/43/46 21/42/46 44/61/46 41/59/46
f 47/63/47 50/64/47 48/65/47
f 47/66/48 48/67/48 78/68/48 77/69/48
f 49/70/49 52/71/49 59/72/49 60/73/49
f 50/64/50 53/74/50 51/75/50 48/65/50
f 48/67/51 51/76/51 79/77/51 78/68/51
f 53/74/52 57/78/52 54/79/52 51/75/52
f 52/71/53 55/80/53 57/81/53 59/72/53
f 51/76/54 54/82/54 81/83/54 79/77/54
f 57/78/55 58/84/55 54/79/55
f 82/85/56 81/83/56 54/79/56
f 83/86/57 58/84/57 55/87/57 84/88/57
f 55/87/58 56/89/58 84/88/58
f 58/84/59 57/78/59 55/87/59
f 58/84/60 83/86/60 82/85/60 54/79/60
f 56/89/61 80/90/61 84/88/61
f 59/72/62 53/91/62 50/92/62 60/73/62
f 57/81/63 53/91/63 59/72/63
f 55/87/64 61/93/64 62/94/64 56/89/64
f 56/89/65 62/94/65 89/95/65 80/90/65
f 55/87/66 52/71/66 61/93/66
f 61/93/67 63/96/67 64/97/67 62/94/67
f 62/94/68 64/97/68 92/98/68 89/95/68
f 52/71/69 49/70/69 63/96/69 61/93/69
f 65/99/70 66/100/70 68/101/70
f 65/102/71 77/69/71 78/68/71 66/103/71
f 67/104/72 86/105/72 85/106/72 70/107/72
f 68/101/73 66/100/73 69/108/73 71/109/73
f 66/103/74 78/68/74 79/77/74 69/110/74
f 71/109/75 69/108/75 72/111/75 75/112/75
f 70/107/76 85/106/76 75/113/76 73/114/76
f 69/110/77 79/77/77 81/83/77 72/115/77
f 75/112/78 72/111/78 76/116/78
f 82/85/79 72/111/79 81/83/79
f 83/86/80 84/88/80 73/117/80 76/116/80
f 73/117/81 84/88/81 74/118/81
f 76/116/82 73/117/82 75/112/82
f 76/116/83 72/111/83 82/85/83 83/86/83
f 74/118/84 84/88/84 80/90/84
f 85/106/85 86/105/85 68/119/85 71/120/85
f 75/113/86 85/106/86 71/120/86
f 73/117/87 74/118/87 88/121/87 87/122/87
f 74/118/88 80/90/88 89/95/88 88/121/88
f 73/117/89 87/122/89 70/107/89
f 87/122/90 88/121/90 91/123/90 90/124/90
f 88/121/91 89/95/91 92/98/91 91/123/91
f 70/107/92 87/122/92 90/124/92 67/104/92
f 14/9/93 3/8/93 49/70/93 60/73/93
f 1/1/94 4/3/94 50/64/94 47/63/94
f 4/29/95 14/9/95 60/73/95 50/92/95
f 31/5/96 1/4/96 47/66/96 77/69/96
f 18/34/97 46/36/97 92/98/97 64/97/97
f 17/35/98 18/34/98 64/97/98 63/96/98
f 3/8/99 17/35/99 63/96/99 49/70/99
f 21/42/100 40/45/100 86/105/100 67/104/100
f 22/38/101 19/37/101 65/99/101 68/101/101
f 40/45/102 22/58/102 68/119/102 86/105/102
f 19/40/103 31/5/103 77/69/103 65/102/103
f 46/36/104 45/62/104 91/123/104 92/98/104
f 45/62/105 44/61/105 90/124/105 91/123/105
f 44/61/106 21/42/106 67/104/106 90/124/106
